{"title":"Bhale Bhale Magadivoy  (2015) Telugu 700MB - 1C","uid":12354552,"size":692245484,"categoryP":"video","categoryS":"movies","magnet":"?xt=urn:btih:89018641a2406726d34c393dc078bfd3672ab662&amp;dn=+Bhale+Bhale+Magadivoy++%282015%29+Telugu+700MB+-+1C&amp;tr=udp%3A%2F%2Ftracker.openbittorrent.com%3A80&amp;tr=udp%3A%2F%2Fopen.demonii.com%3A1337&amp;tr=udp%3A%2F%2Ftracker.coppersurfer.tk%3A6969&amp;tr=udp%3A%2F%2Fexodus.desync.com%3A6969","seeders":35,"leechers":6,"uploader":"pranavvv","files":3,"time":1441459804,"description":"[center][img]http://i.imgur.com/Nyl7QP8.png[/img]\n\n[img]http://www.newsonway.com/wp-content/uploads/2015/09/bhale-bhale-magadivoy-review-rating.jpg[/img]\n\n[code]SCREENSHOTS[/code]\n\n[img]http://www.imgpuppy.com/images/2015/09/05/1.jpg[/img]\n[img]http://www.imgpuppy.com/images/2015/09/05/2.jpg[/img]\n[img]http://www.imgpuppy.com/images/2015/09/05/3.jpg[/img]\n[img]http://www.imgpuppy.com/images/2015/09/05/4.jpg[/img]\n[img]http://www.imgpuppy.com/images/2015/09/05/05.jpg[/img]\n[img]http://www.imgpuppy.com/images/2015/09/05/6.jpg[/img]\n\n\nVideo Info\n\n\n\n[code]Format : Matroska\nFormat version : Version 4 / Version 2\nFile size : 697 MiB\nDuration : 2h 33mn\nOverall bit rate : 636 Kbps\nEncoded date : UTC 2015-08-30 18:13:46\nWriting application : mkvmerge v8.2.0 ('World of Adventure') 64bit\nWriting library : libebml v1.3.1 + libmatroska v1.4.2\nDURATION : 00:42:02.958000000\nNUMBER_OF_FRAMES : 1\nNUMBER_OF_BYTES : 18\n_STATISTICS_WRITING_APP : mkvmerge v8.2.0 ('World of Adventure') 64bit\n_STATISTICS_WRITING_DATE_UT : 2015-08-30 18:13:46\n_STATISTICS_TAGS : BPS DURATION NUMBER_OF_FRAMES NUMBER_OF_BYTES\n\nVideo\nID : 1\nFormat : AVC\nFormat/Info : Advanced Video Codec\nFormat profile : &lt;a class=&quot;__cf_email__&quot; href=&quot;/cdn-cgi/l/email-protection&quot; data-cfemail=&quot;93dbfaf4fbd3dfa0bda2&quot;&gt;[email&amp;#160;protected]&lt;/a&gt;&lt;script data-cfhash='f9e31' type=&quot;text/javascript&quot;&gt;\n/* &lt;![CDATA[ */!function(){try{var t=&quot;currentScript&quot;in document?document.currentScript:function(){for(var t=document.getElementsByTagName(&quot;script&quot;),e=t.length;e--;)if(t[e].getAttribute(&quot;data-cfhash&quot;))return t[e]}();if(t&amp;&amp;t.previousSibling){var e,r,n,i,c=t.previousSibling,a=c.getAttribute(&quot;data-cfemail&quot;);if(a){for(e=&quot;&quot;,r=parseInt(a.substr(0,2),16),n=2;a.length-n;n+=2)i=parseInt(a.substr(n,2),16)^r,e+=String.fromCharCode(i);e=document.createTextNode(e),c.parentNode.replaceChild(e,c)}t.parentNode.removeChild(t);}}catch(u){}}()/* ]]&gt; */&lt;/script&gt;\nFormat settings, CABAC : Yes\nFormat settings, ReFrames : 5 frames\nCodec ID : V_MPEG4/ISO/AVC\nDuration : 2h 33mn\nBit rate : 570 Kbps\nWidth : 608 pixels\nHeight : 272 pixels\nDisplay aspect ratio : 2.25:1\nFrame rate mode : Constant\nFrame rate : 23.976 fps\nColor space : YUV\nChroma subsampling : 4:2:0\nBit depth : 8 bits\nScan type : Progressive\nBits/(Pixel*Frame) : 0.144\nStream size : 613 MiB (88%)\nWriting library : x264 core 146 r2538 121396c\nEncoding settings : cabac=1 / ref=5 / deblock=1:-1:-1 / analyse=0x3:0x113 / me=hex / subme=7 / psy=1 / psy_rd=1.00:0.15 / mixed_ref=1 / me_range=16 / chroma_me=1 / trellis=1 / 8x8dct=1 / cqm=0 / deadzone=21,11 / fast_pskip=1 / chroma_qp_offset=-3 / threads=12 / lookahead_threads=2 / sliced_threads=0 / nr=0 / decimate=1 / interlaced=0 / bluray_compat=0 / constrained_intra=0 / bframes=3 / b_pyramid=2 / b_adapt=1 / b_bias=0 / direct=3 / weightb=1 / open_gop=0 / weightp=2 / keyint=240 / keyint_min=23 / scenecut=40 / intra_refresh=0 / rc_lookahead=50 / rc=2pass / mbtree=1 / bitrate=570 / ratetol=1.0 / qcomp=0.60 / qpmin=0 / qpmax=69 / qpstep=4 / cplxblur=20.0 / qblur=0.5 / vbv_maxrate=17500 / vbv_bufsize=17500 / nal_hrd=none / filler=0 / ip_ratio=1.40 / aq=1:1.00\nDefault : Yes\nForced : No\nColor range : Limited\nColor primaries : BT.601 NTSC\nTransfer characteristics : BT.601\nMatrix coefficients : BT.601\nDURATION : 02:33:21.109000000\nNUMBER_OF_FRAMES : 220606\nNUMBER_OF_BYTES : 655604444\n_STATISTICS_WRITING_APP : mkvmerge v8.2.0 ('World of Adventure') 64bit\n_STATISTICS_WRITING_DATE_UT : 2015-08-30 18:13:46\n_STATISTICS_TAGS : BPS DURATION NUMBER_OF_FRAMES NUMBER_OF_BYTES\n\nID : 2\nFormat : MPEG Audio\nFormat version : Version 1\nFormat profile : Layer 3\nCodec ID : A_MPEG/L3\nCodec ID/Hint : MP3\nDuration : 2h 33mn\nBit rate mode : Constant\nBit rate : 64.0 Kbps\nChannel(s) : 2 channels\nSampling rate : 48.0 KHz\nCompression mode : Lossy\nStream size : 70.2 MiB (10%)[/code]\n[/center]","torrent":{"xt":"urn:btih:89018641a2406726d34c393dc078bfd3672ab662","amp;dn":"+Bhale+Bhale+Magadivoy++%282015%29+Telugu+700MB+-+1C","amp;tr":["udp%3A%2F%2Ftracker.openbittorrent.com%3A80","udp%3A%2F%2Fopen.demonii.com%3A1337","udp%3A%2F%2Ftracker.coppersurfer.tk%3A6969","udp%3A%2F%2Fexodus.desync.com%3A6969"],"infoHash":"89018641a2406726d34c393dc078bfd3672ab662","infoHashBuffer":{"type":"Buffer","data":[137,1,134,65,162,64,103,38,211,76,57,61,192,120,191,211,103,42,182,98]},"announce":[],"urlList":[]}}